<?xml version="1.0" standalone="no"?>
<!DOCTYPE svg PUBLIC "-//W3C//DTD SVG 20010904//EN"
 "http://www.w3.org/TR/2001/REC-SVG-20010904/DTD/svg10.dtd">
<svg version="1.0" xmlns="http://www.w3.org/2000/svg"
 width="300.000000pt" height="300.000000pt" viewBox="0 0 300.000000 300.000000"
 preserveAspectRatio="xMidYMid meet">
<metadata>
Created by potrace 1.11, written by Peter Selinger 2001-2013
</metadata>
<g transform="translate(0.000000,300.000000) scale(0.100000,-0.100000)"
fill="#000000" stroke="none">
<path d="M358 2984 c-27 -14 -54 -51 -50 -66 1 -5 -2 -8 -7 -8 -5 0 -9 -81 -9
-180 0 -99 4 -180 9 -180 5 0 9 -5 9 -11 0 -6 71 -125 158 -263 l157 -251 2
-662 c1 -599 0 -664 -15 -694 -13 -25 -46 -51 -127 -100 -124 -75 -178 -118
-178 -142 0 -10 -4 -17 -8 -17 -3 0 -7 -69 -7 -152 0 -162 7 -196 49 -234 21
-19 47 -19 1153 -21 764 -2 1139 1 1156 8 14 5 34 22 45 37 18 24 20 44 21
202 1 155 -1 178 -17 201 -11 15 -77 62 -148 104 -79 48 -135 88 -145 106 -15
25 -16 91 -15 696 1 604 2 671 17 695 10 15 78 126 153 245 75 120 141 227
147 238 6 13 10 94 9 208 l-2 187 -33 32 -32 33 -183 3 c-258 5 -270 -3 -273
-181 -1 -86 -5 -112 -18 -125 -14 -14 -42 -17 -177 -17 -112 -1 -165 2 -177
11 -17 12 -20 44 -22 191 0 44 -5 58 -29 85 l-29 33 -219 3 c-300 5 -305 2
-308 -186 -1 -70 -6 -117 -14 -125 -16 -16 -336 -18 -359 -1 -13 10 -17 33
-18 123 -3 180 -17 190 -270 190 -130 0 -175 -3 -196 -15z"/>
</g>
</svg>
